<?xml version="1.0" encoding="UTF-8"?>
<svg version="1.1" viewBox="0 0 1260 1260" width="1280" height="1280" xmlns="http://www.w3.org/2000/svg">
<path transform="translate(653,183)" d="m0 0 4 2 7 14 6 4h14l16-8 15-11 2 1 2 9 4 6 5 4 2 1 9-1 13-5 15-9 2 2 2 7 2 10 4 6 11 2 10-1 8-4 14-9h3l1 25 3 5 7 3 10 1 17-2 10-4h4l-1 16-1 15 5 2 1 1h13l20-3 13-3-3 9-6 10v13l10 4h15l17-4h6v27l2 8 3 4 7 2 14 1-3 9v19l5 2 4 2 14 1 13-1-4 22v9l3 6 3 3 7 1h23l-2 4-7 7-6 8-4 4v14l3 6 8 4 3 1 37 1-4 4-17 8-11 8-3 3-1 6h32l5 4 1 8 2 5 4 4 16 8 10 7 15 15 8 10 12 25 4 10 2 12-1 14-4 19-7 21-9 20-9 14-9 10-15 15-7 8-12 11-13 9-19 10-8 2-3 9v8l1 5 4 2 3 4-10 3-4 6-1 13 9 10-3 3-7 4-2 8v9l2 5 5 6 5 4v2h-12l-17 5-7 6v15l5 12 7 7v2l-14 1-11 4-2 2v15l3 6 5 5-1 3h-27l-8 4-1 2v12l7 10 13 10 4 4h-44l-10 3-2 6v8l3 8 9 10 4 5-7-1-32-3-7 1-4 4-2 5v9l2 4 5 5 13 12 3 2v2l-12-1-28-5-5-1h-11l-6 3-4 6v9l4 6 4 4v2l-27-6-8-1h-25l-9 3-1 5v7l3 9-5-2-16-8-14-6-3-1h-20l-3 9v28l-6-2-9-4h-11l-5 3-3 4-2 16-8-1-5-1h-23l-6 3h-2l-1 11-5-2-8-4h-11l-8 4-5 5v18l-5-1h-14l-9 5-5 6v12l4 9 3 3v2l-2 1-18 1-11 4-6 4-1 2-1 14h-4l-7-4-5-1h-11l-10 4-5 5h-2l-2 4-2 7v17l-4-2-4-4-9-7-4-4-12-4-14-1-11 2-8 6-4 6-3 11-3-3-7-10-15-11-2-1h-13l-15 2-7 4-8 10-4 9-3-3-6-12-8-10-10-8-11-4h-9l-11 4-11 8-3 5-3 1-6-21-6-8-7-3h-16l-7 2-11 7-5 2-1-25-5-18-9-2h-8l-7 2-10 7h-2l1-7 5-14 1-7v-19l-4-9-4-4-11-1h-12l-12 1 5-5 16-12 10-8 6-5 2-3v-16l-5-5-20-8 5-5 13-8 10-8 6-7 3-5 1-4 2-32 1-14 4-11 1-10-6-2-15-1 1-5v-14l-3-13-4-6-14-6-3-4-1-25-3-11-6-5-10-3 3-12v-19l-2-8-7-8-12-5-8-1v-2h2l2-5 5-9 1-5v-16l-2-5-6-5-10-3-12-1 5-5 9-8 5-9 1-10-2-9v-4l-5-2-8-5 3-2 10-5 5-5 5-10 1-9-3-12-7-8-9-4 1-3 10-5 4-4 1-2v-9l-4-6-5-8 2-5 5-2 13-2 16-7 2-7-5-12-9-9 1-2 17-3 8-7 3-8v-16l10 3 15 1 8-2 6-2 4-7 1-18h14l14-1 5-3 3-5 1-4 1-15 4-3 10-2 6-3 7-8 3-5 5-21v-27l-1-7v-8l3-5 9-4 11-7 10-9 9-13 6-16v-21l2-9 1-1 25-1 17-5 13-7 4-5 5-13 2-7 13 2h12l13-3 7-9 4-8 2-9 1-6 6 1 4 2h11l8-5 9-12 8-20 1-8 3 1 6 8 7 6 5 8 2 1 16-1 7-3 5-6 6-17 1-2 4 2 7 11 2 5 10-2 14-8 5-5 8-10h2l5 16 4 2h9l8-5 14-14z" fill="#020202"/>
<path transform="translate(378,392)" d="m0 0h29l15 1-1 7-13 15-9 6h-3l-1 4 10 2 11 3 7 1h35l19-2-1 9-4 7-7 8-5 4 1 10 22-1 19-5h7l1 1-1 8-7 11-6 5v2l10 2h26l14-3 12-5 1 1v32l6 3h11l15-4 16-8 9-4h3l1 8-2 12v11h11l24-10 16-9 3-1h7l-3 13-4 7-1 4 10-3 9-1 22-11 5-4 9 1 1 1-1 11-2 7 1 10 12-2 19-9 10-8 8-6 4-7h2l2 8v8l-2 7-4 6-1 6h6l14-6 11-4 16-9 5-6h1l-1 14v14l5 21v14l-5 12-4-4-1-2-1-17-1-3-4 2-7 13-5 16-6 11-8 10-5 9-2-1v-11l3-16 4-8 2-3-10 2-4 2v2l-3 2-7 14-4 6h-2l-2 4-7 8-11 10-4 3h-2l-2 4-3 1 3-9 7-8 6-6v-2l-9 2-10 5-9 7-6 5-7 8-14 10-15 8-34 12-20 11-14 13-5 5-4 3v6l14-6 8-2h6l-2 5-8 10-9 14-8 16-2 8v11h3l2-4 3-4h9l-1 10-4 11-4 7-5-1-4-4-8-19-1-3h-2l-11-14-5-5-11-12-3-2v-2l-6-3v-2h-2l-5-6v-2l7-5 16-6 18-6 6-4 9-14 2-9 2-10 2-4h10l8 1h17l9-2 15-6 8-4 14-11 8-11 6-11 4-6 7-5 13-2 16-13 5-5 5-8 2-7-31-1-11-3-12-2-11-6-19-13-10-2-17-2h-30l-19 3-14 5-15 4-20 12-7 5-12-1-8-4v-2h-2l-7-8-4-4v-2l-3-1-1-4h-6l-18 8h-11l-3-3-2-3-2-17-1-6-1-16-4-13-5-11-5-4-3-3-20-9-10-4-16-2-15-1-14-4-12-6-11-9-7-9-1-12v-9l3-9 13-8 10-4 11-3z" fill="#FA3CFE"/>
<path transform="translate(372,834)" d="m0 0 13 1 10 7 1 8v14l-5 38-2 24-4 15-2 21-7 10-5 10-4 5h-2l-10 20-7 9-8 7-1 2 8-4 11-11 6-8 8-10 7-9 10-14 6-11 4-19 2-6 2-14 4-15 1-12 5-16 6-14 7-9 9-5h9l3 1 6 9 8 10v2h2l11 14 1 6v15l-2 12-8 22-7 15-7 5h-2l-5-7-10-2-6 2-8 5-8 11-11 20-7 18-3 8-4 6-7 6-6 4-5 7-8 7h-2l-2 4-7 8-8 7-16 11-10 6-13 4-11 1-10-5-5-12v-2l-3 1-2 8 1 7 7 7 8 5 7 1h14l10-7 15-8 13-11 12-9 12-12 6-5 4-5 10-8h2v-2l4 1 1 2v8l-3 6h-2v2l-8 7-16 13-21 18-5 5-19 12-14 3h-12l-14-1-12-4-8-6-4-10v-22l5-13 8-17 8-7 10-8 3-1v-2l5-4 14-10 5-4 6-9 8-7 5-12 5-13 7-14 2-13 3-7 3-18 1-16v-36l4-10 8-6z" fill="#FA3CFE"/>
<path transform="translate(283,658)" d="m0 0h25l46 5 5 3 4 3 12 3 6 7 11 8 19 11 13 4 12 3 5 2 38 2 9 3 9 6 12 6 7 5v2h2l5 6 22 14 17 10 5 5 10 14 8 12 10 17 1 12-6 18-4 25h2l4-4 6-2 3 6v11l-5 16-5 21v6l6-2 7 3-1 11-5 14-9 26-8 18-8 16-9 13-6 11-9 10-15 15-12 6-10 7-14 8-12 7-14 4-5 3-15 4-7 3-14 3-13 4-24 3h-49l-3-1 2-5 18-8 15-1 32-8 2-1 15-2 21-6 15-6 12-5 13-3 12-8 11-8 8-6 10-7 8-6 6-7 9-15 5-15 8-16 2-13 3-9 5-23 2-27v-9l-2-15-1-23-1-11-9-21-5-10-12-17-8-10-11-10-8-7-7-6-9-6-21-9-14-9-19-9-10-5-19-7-18-6-13-1-9-4-12-1-10-4-17-2-15-3h-35l-25 4h-16l-7-4-2-2-1-10 5-10 9-7 23-5z" fill="#FA3CFE"/>
<path transform="translate(1027,522)" d="m0 0 22 2 24 7 19 9 9 8v2h2l9 13 3 6 2 16 2 14v29l-3 20-4 11-3 8-10 10-7 9-4 6-11 9-7 6-4 5h-2l-2 4-11 5-16 5-19 9-8 1-19-8-3-9 4-10 7-7 19-8 12-6 5-5 9 1 2 10 4 1 2-5 11-14 5-9 5-18 3-5 4-19 2-10 1-17-2-11-7-16-8-10-16-9-9-2-31 1-24 4-16 7h-3l1-4 20-20 10-7 10-5 10-3z" fill="#FA3CFE"/>
<path transform="translate(351,591)" d="m0 0h15l11 8 8 8 7 14 10 15h2v-10l-1-11 1-7 10-1 2 11-1 8 3 10 3 1 6-16 11-9 8-3 10-2h24l10 5 6 7-8 8-4 8 7-4 5-3 5-1h14l2 1 2 5-1 4-12 2-16 8-14 9-8 7-1 4 36-12 10-4 24-2h13l9 2 9 7 6 11 1 13-1 7-11 12-5 4-17 5h-21l-9-3-5-5-3-4 1-3 6-3h9l9 3 14 1 7-5h2l-1-12-5-8-16-3h-9l-9 2-16 8-21 7-16 1-21-3-15-5-10-6-7-6-4-6-8-7-3-5-7-14-4-10v-2l-4-2-11-7-3-1h-13l1 13 4 10 6 8 2 6-11-1-9-5-7-11-4-9-1-10 3-10 9-9z" fill="#FA3CFE"/>
<path transform="translate(280,711)" d="m0 0 7 1 18 4 17 2h15l15 2 15 3 8 4 21 6 16 5 15 6 14 4 12 5 13 4 12 5 15 6v2l4 2 17 12 15 15 9 13 8 11 7 14 5 16v42l-2 7-2 31-5 23-3 17-3-1-6-8-4-4-4-1 1-15 5-12 4-18 1-11 3-7v-31l-6-10-3-9-7-10-7-15-5-13-7-4-3-10-7-8-13-9-6-3-26-1-8-3-7-8-7-3h-12l-2 7-4-1-10-13-2-3-11-4-12-1-6-4-8-3-18-2-15-5-10 3-10 5-4-1-9-7-16-9-13-1-11-3v-3l2-2h16z" fill="#FA3CFE"/>
<path transform="translate(1007,585)" d="m0 0h14l9 1 5 4 5 5 6 7 4 7 1 4v14l-2 5-5 6-3-3-5-12-1-4-9-3-11-4-2 1 6 6v2l4 2 5 6 4 7v16l-3 9-3 6-4 3h-2v2l-7 4-27 12h-23l-1-6-1-69 2-10 3-5 11-6 24-6z" fill="#FA3CFE"/>
<path transform="translate(612,569)" d="m0 0h15l15 4 10 7 6 7 4 9v11l-4 9-9 14-8 7-5 3-9 3h-18l-16-3-11-6-7-7-1-4v-14l2-12 7-11 9-8 17-8z" fill="#FDFCFE"/>
<path transform="translate(374,503)" d="m0 0h11l15 3 5 2 10 8 6 8 3 9v16l-2 8-7 8-10 5-8 2h-23l-14-9-5-4-4-10-1-14 1-14 7-8 11-9z" fill="#FDFBFE"/>
<path transform="translate(317,496)" d="m0 0h6l-1 8-6 16-1 5v12l4 15 10 15v9l-8 6-5 5-3 4-1 8 1 12 4 8 3 12 9 11v3l-29 1-20 4-9-1-2-18-2-9v-14l4 1 10 7 5 4 6 4h2l-4-18-3-7-8-16-7-6 1-6 5-1 16 8 7 5 4-1 2-2v-27l-1-19v-29l3-7 5 1z" fill="#FA3CFE"/>
<path transform="translate(310,807)" d="m0 0h2v2l14 1 8 2 3 7v27l-3 23-2 37-3 19-4 17-11 13-4 2-1-7v-10l1-14 4-15 1-13v-23l-2-33-5-27z" fill="#FA3CFE"/>
<path transform="translate(472,792)" d="m0 0h14l7 6 5 10 1 3v8l-4 20-1 8v26l-4-1-11-7-7-8-12-22-3-13v-11l1-8 6-9z" fill="#FDFCFE"/>
<path transform="translate(264,736)" d="m0 0h12l7 5 2 7v11l-5 9-5 10-3 12v21l1 9-2 5-7-1-5-3-7-13-4-8-1-3v-30l4-15 4-8z" fill="#FDFCFE"/>
<path transform="translate(535,999)" d="m0 0h2l-2 4-9 13-12 12-14 8-10 5-7 4-10 3-6 5-19 7-14 2-14 5-4 1-14 1-7 2h-7v-3l5-5 11-6 10-6 4-3h21l16-5 11-4 6-2 9-2 13-9 14-8 14-10z" fill="#FA3CFE"/>
<path transform="translate(272,916)" d="m0 0h7l4 4 1 33 7 21 1 5v8l-3 4-7 3h-13l-5-8-2-8-1-9v-20l4-15 6-17z" fill="#FDFBFE"/>
<path transform="translate(607,586)" d="m0 0 11 2 11 4 7 8 2 7v5l-6 8-12 4-11 1-10-2-8-5-3-7 1-9 3-6 7-6z" fill="#020202"/>
<path transform="translate(291,826)" d="m0 0 4 2 3 7 4 20 2 16v11l-2 19-8 6-4-2-6-7-3-5-1-11v-15l2-9 6-14 1-13z" fill="#FA3CFE"/>
<path transform="translate(428,969)" d="m0 0 5 1 2 17 8 32 1 10-6 6h-13l-7-8-3-6v-27l4-13 7-11z" fill="#FDFBFE"/>
<path transform="translate(516,872)" d="m0 0 4 2-2 13-6 12-15 24-6 9-7 21-7 16-6 13-8 7-6-2-3-3 3-6 14-18 7-17 4-10 7-24 7-7 8-3 8-16 3-10z" fill="#FA3CFE"/>
<path transform="translate(383,517)" d="m0 0 6 2 10-1 6 8 3 7v13l-2 4-12 5-9 1-9-6-5-10-1-10 3-6 8-6z" fill="#020202"/>
<path transform="translate(249,988)" d="m0 0 5 2 3 4 3 16-1 24-4 11-4 8-6-5-3-9v-34l1-10z" fill="#FA3CFE"/>
<path transform="translate(490,569)" d="m0 0 4 1 3 3 2 11 3 9 4 2 6 5 2 6-6-1-10-4-40-9v-3l15-8h2v-2l10-7z" fill="#FA3CFE"/>
<path transform="translate(428,778)" d="m0 0h10l1 1v11l-2 12-6 15-3 2-9 1-9-4-1-10 8-12 7-10z" fill="#FDFAFE"/>
<path transform="translate(353,758)" d="m0 0h3v27l-4 10h-10l-6-2-1-2v-12l5-10 5-6z" fill="#FDFBFE"/>
<path transform="translate(383,770)" d="m0 0h6l4 4v23l-3 9-7 2-10-3v-9l4-13z" fill="#FDFCFE"/>
<path transform="translate(972,622)" d="m0 0 8 1 5 3 5 4 8 11 1 8-2 4-16-7-6-4-4-8v-11z" fill="#020202"/>
<path transform="translate(317,754)" d="m0 0h7l2 1v16l-6 9-10 1-3-5-1-5 9-15z" fill="#FDF9FE"/>
<path transform="translate(467,996)" d="m0 0 8 1 2 8v22l-4 1-7-2-3-9 2-14z" fill="#FDFAFE"/>
<path transform="translate(519,925)" d="m0 0h1v9l-9 21-8 15-4 5-5 1 1-6 13-27 9-17z" fill="#FA3CFE"/>
<path transform="translate(509,982)" d="m0 0h8l3 2v11l-2 8-3 4h-7l-2-13-1-4z" fill="#FDFDFE"/>
<path transform="translate(486,990)" d="m0 0h7l5 9v10l-4 6-6 1-2-13z" fill="#FDFBFE"/>
<path transform="translate(519,968)" d="m0 0h9l6 6v8l-2 11-4 1-9-23z" fill="#FDF5FE"/>
<path transform="translate(273,1009)" d="m0 0 5 1 2 7-9 2 1-9z" fill="#FA3CFE"/>
</svg>
